# xmcd CD database file
#
# Track frame offsets:
#	150
#	16260
#	27886
#	42080
#	71666
#	89123
#	112007
#	131459
#	156673
#	174771
#	192858
#	210491
#	225916
#
# Disc length: 3445 seconds
#
# Revision: 0
# Processed by: cddbd v1.5PL3 Copyright (c) Steve Scherf et al.
# Submitted via: cdripper 1.0.7
#
DISCID=a60d730d
DTITLE=Jeff Chaz - Tired of Being Lonely
DYEAR=2001
DGENRE=Blues
TTITLE0=I Can't Wait No More
TTITLE1=Don't Shave Your Legs Tonight
TTITLE2=Bourbon St. Blues Man
TTITLE3=Child Support
TTITLE4=Tired of Being Lonely
TTITLE5=A Chill in the Air
TTITLE6=Breaktime
TTITLE7=Seafood Dept. Blues
TTITLE8=Lie to Me Baby
TTITLE9=Talk to Me Baby
TTITLE10=Ain't Smellin' Too Good
TTITLE11=Sounds Like the Blues to Me
TTITLE12=Everybody Knows
EXTD=YEAR: 2001
EXTT0=
EXTT1=
EXTT2=
EXTT3=
EXTT4=
EXTT5=
EXTT6=
EXTT7=
EXTT8=
EXTT9=
EXTT10=
EXTT11=
EXTT12=
PLAYORDER=
